<svg fill="none" viewBox="0 0 24 24" xmlns="http://www.w3.org/2000/svg"><path d="M13.409 2.512a3.75 3.75 0 0 0-2.818 0l-2.19.888 9.592 3.73 3.374-1.303a1.747 1.747 0 0 0-.46-.275l-7.498-3.04ZM22 7.19l-9.25 3.574v10.923c.224-.045.444-.112.659-.199l7.498-3.04A1.75 1.75 0 0 0 22 16.826V7.19ZM11.25 21.687V10.764L2 7.19v9.636a1.75 1.75 0 0 0 1.093 1.622l7.498 3.04c.215.087.435.154.659.2ZM2.633 5.827 12 9.446l3.917-1.514-9.543-3.71-3.281 1.33c-.17.069-.324.162-.46.275Z" fill="#75fe9e" class="fill-212121"></path></svg>